
<svg width="64" height="64" viewBox="0 0 64 64" fill="none" xmlns="http://www.w3.org/2000/svg">
  <path d="M60.5514 2.75781L35.9998 21.8063L40.3424 11.6969L60.5514 2.75781Z" fill="#E17726" stroke="#E17726" stroke-width="0.25" stroke-linecap="round" stroke-linejoin="round"/>
  <path d="M3.44922 2.75781L27.7703 21.9945L23.6633 11.6969L3.44922 2.75781Z" fill="#E27625" stroke="#E27625" stroke-width="0.25" stroke-linecap="round" stroke-linejoin="round"/>
  <path d="M51.9879 43.9023L45.7109 53.3429L59.0469 56.871L62.8742 44.1843L51.9879 43.9023Z" fill="#E27625" stroke="#E27625" stroke-width="0.25" stroke-linecap="round" stroke-linejoin="round"/>
  <path d="M1.14844 44.1843L4.95684 56.871L18.2773 53.3429L12.0158 43.9023L1.14844 44.1843Z" fill="#E27625" stroke="#E27625" stroke-width="0.25" stroke-linecap="round" stroke-linejoin="round"/>
  <path d="M17.6475 28.0391L13.9844 33.5828L27.1406 34.1469L26.7457 19.9375L17.6475 28.0391Z" fill="#E27625" stroke="#E27625" stroke-width="0.25" stroke-linecap="round" stroke-linejoin="round"/>
  <path d="M46.3611 28.0352L37.1035 19.7383L36.8613 34.1431L50.0174 33.579L46.3611 28.0352Z" fill="#E27625" stroke="#E27625" stroke-width="0.25" stroke-linecap="round" stroke-linejoin="round"/>
  <path d="M18.2754 53.3437L26.3506 49.5905L19.3748 44.2812L18.2754 53.3437Z" fill="#E27625" stroke="#E27625" stroke-width="0.25" stroke-linecap="round" stroke-linejoin="round"/>
  <path d="M37.6523 49.5905L45.7119 53.3437L44.6281 44.2812L37.6523 49.5905Z" fill="#E27625" stroke="#E27625" stroke-width="0.25" stroke-linecap="round" stroke-linejoin="round"/>
  <path d="M45.7119 53.3463L37.6523 49.5931L38.3424 54.6203L38.2639 56.6843L45.7119 53.3463Z" fill="#D5BFB2" stroke="#D5BFB2" stroke-width="0.25" stroke-linecap="round" stroke-linejoin="round"/>
  <path d="M18.2754 53.3463L25.7391 56.6843L25.6764 54.6203L26.3506 49.5931L18.2754 53.3463Z" fill="#D5BFB2" stroke="#D5BFB2" stroke-width="0.25" stroke-linecap="round" stroke-linejoin="round"/>
  <path d="M25.9297 40.9492L19.1875 39.0734L24.0158 36.918L25.9297 40.9492Z" fill="#233447" stroke="#233447" stroke-width="0.25" stroke-linecap="round" stroke-linejoin="round"/>
  <path d="M38.0723 40.9492L39.9862 36.918L44.8303 39.0734L38.0723 40.9492Z" fill="#233447" stroke="#233447" stroke-width="0.25" stroke-linecap="round" stroke-linejoin="round"/>
  <path d="M18.2783 53.3429L19.4249 43.9023L12.0166 44.1843L18.2783 53.3429Z" fill="#CC6228" stroke="#CC6228" stroke-width="0.25" stroke-linecap="round" stroke-linejoin="round"/>
  <path d="M44.5781 43.9023L45.7091 53.3429L51.9866 44.1843L44.5781 43.9023Z" fill="#CC6228" stroke="#CC6228" stroke-width="0.25" stroke-linecap="round" stroke-linejoin="round"/>
  <path d="M50.0166 33.5781L36.8604 34.1422L38.0701 40.9492L40.0001 36.918L44.8287 39.0734L50.0166 33.5781Z" fill="#CC6228" stroke="#CC6228" stroke-width="0.25" stroke-linecap="round" stroke-linejoin="round"/>
  <path d="M19.1865 39.0734L24.015 36.918L25.929 40.9492L27.1387 34.1422L13.9824 33.5781L19.1865 39.0734Z" fill="#CC6228" stroke="#CC6228" stroke-width="0.25" stroke-linecap="round" stroke-linejoin="round"/>
  <path d="M13.9824 33.5781L19.3756 44.2812L19.1865 39.0734L13.9824 33.5781Z" fill="#E27525" stroke="#E27525" stroke-width="0.25" stroke-linecap="round" stroke-linejoin="round"/>
  <path d="M44.8271 39.0734L44.6221 44.2812L50.0154 33.5781L44.8271 39.0734Z" fill="#E27525" stroke="#E27525" stroke-width="0.25" stroke-linecap="round" stroke-linejoin="round"/>
  <path d="M27.1406 34.1406L25.9307 40.9476L27.4615 48.8722L27.7355 38.3683L27.1406 34.1406Z" fill="#E27525" stroke="#E27525" stroke-width="0.25" stroke-linecap="round" stroke-linejoin="round"/>
  <path d="M36.8609 34.1406L36.2822 38.3523L36.54 48.8722L38.0709 40.9476L36.8609 34.1406Z" fill="#E27525" stroke="#E27525" stroke-width="0.25" stroke-linecap="round" stroke-linejoin="round"/>
  <path d="M38.0713 40.9492L36.54 48.8738L37.6557 49.5902L44.6313 44.2809L44.8365 39.0732L38.0713 40.9492Z" fill="#F5841F" stroke="#F5841F" stroke-width="0.25" stroke-linecap="round" stroke-linejoin="round"/>
  <path d="M19.1875 39.0732L19.3766 44.2809L26.3521 49.5902L27.4679 48.8738L25.9367 40.9492L19.1875 39.0732Z" fill="#F5841F" stroke="#F5841F" stroke-width="0.25" stroke-linecap="round" stroke-linejoin="round"/>
  <path d="M38.2637 56.6807L38.3422 54.6168L37.6992 54.0527H26.3037L25.6764 54.6168L25.7391 56.6807L18.2754 53.3428L20.618 55.2508L26.2408 59.0199H37.7621L43.3848 55.2508L45.7117 53.3428L38.2637 56.6807Z" fill="#C0AC9D" stroke="#C0AC9D" stroke-width="0.25" stroke-linecap="round" stroke-linejoin="round"/>
  <path d="M37.6523 49.5898L36.5367 48.8735H27.4609L26.3453 49.5898L25.6711 54.617L26.2984 54.0529H37.6937L38.3369 54.617L37.6523 49.5898Z" fill="#161616" stroke="#161616" stroke-width="0.25" stroke-linecap="round" stroke-linejoin="round"/>
  <path d="M61.5566 21.9941L63.5078 12.6503L60.5517 2.75781L37.6523 20.2941L46.3596 28.0351L58.8705 31.5633L61.5723 28.4141L60.4101 27.6019L62.2608 25.9656L60.8504 24.9105L62.7012 23.5262L61.5566 21.9941Z" fill="#763E1A" stroke="#763E1A" stroke-width="0.25" stroke-linecap="round" stroke-linejoin="round"/>
  <path d="M0.496094 12.6503L2.46307 21.9941L1.28666 23.5262L3.1531 24.9105L1.74269 25.9656L3.59336 27.6019L2.43127 28.4141L5.13307 31.5633L17.6439 28.0351L26.3511 20.2941L3.45181 2.75781L0.496094 12.6503Z" fill="#763E1A" stroke="#763E1A" stroke-width="0.25" stroke-linecap="round" stroke-linejoin="round"/>
  <path d="M58.8701 31.5625L46.3594 28.0344L50.0156 33.5781L44.6221 44.2813L51.9879 44.1813H62.8742L58.8701 31.5625Z" fill="#F5841F" stroke="#F5841F" stroke-width="0.25" stroke-linecap="round" stroke-linejoin="round"/>
  <path d="M17.6443 28.0344L5.13354 31.5625L1.14844 44.1813H12.0191L19.3848 44.2813L13.9914 33.5781L17.6443 28.0344Z" fill="#F5841F" stroke="#F5841F" stroke-width="0.25" stroke-linecap="round" stroke-linejoin="round"/>
  <path d="M36.8613 34.1445L37.6521 20.2945L40.3434 11.6992H23.6562L26.3475 20.2945L27.1383 34.1445L27.4596 38.3883L27.4754 48.8761H36.5512L36.567 38.3883L36.8613 34.1445Z" fill="#F5841F" stroke="#F5841F" stroke-width="0.25" stroke-linecap="round" stroke-linejoin="round"/>
</svg>
