<?xml version="1.0" encoding="UTF-8"?>
<svg version="1.1" xmlns="http://www.w3.org/2000/svg" width="222" height="227">
<path d="M0 0 C73.26 0 146.52 0 222 0 C222 74.91 222 149.82 222 227 C148.74 227 75.48 227 0 227 C0 152.09 0 77.18 0 0 Z " fill="#FDFEFE" transform="translate(0,0)"/>
<path d="M0 0 C0.66 1.32 1.32 2.64 2 4 C4.97030852 9.4836465 8.15882621 12.08933568 14 14 C18.54840968 14.4084125 18.54840968 14.4084125 22.83984375 13.1640625 C25 13 25 13 27.70703125 15.03515625 C28.75409677 16.03190823 29.78841003 17.0421567 30.8125 18.0625 C31.97510487 19.17854747 33.13787175 20.2944262 34.30078125 21.41015625 C34.90615723 21.99941895 35.5115332 22.58868164 36.13525391 23.19580078 C39.21490195 26.17545502 42.36099282 29.08318036 45.5 32 C46.77234261 33.18858033 48.04447917 34.37738127 49.31640625 35.56640625 C52.67769571 38.70366809 56.0547785 41.82338169 59.4375 44.9375 C65.00926464 50.06793675 70.53534853 55.24597564 76.05615234 60.43115234 C80.72767857 64.81554514 85.42323882 69.17251018 90.13671875 73.51171875 C94.2745102 77.32337885 98.39015142 81.15824194 102.5 85 C107.15258516 89.34878161 111.81600113 93.68506968 116.5 98 C124.34695071 105.23018087 132.1394248 112.5185775 139.93212891 119.80712891 C147.22535157 126.62827445 154.53949733 133.42268146 161.91015625 140.16015625 C166.08914755 143.9910116 170.22483312 147.86829082 174.36547852 151.74047852 C178.3751794 155.48855498 182.39942129 159.22003319 186.4375 162.9375 C191.36926322 167.48382554 196.2865466 172.04546756 201.1875 176.625 C201.86506348 177.25801025 202.54262695 177.89102051 203.24072266 178.54321289 C207.98160362 182.99321033 212.5815152 187.54801758 217.08203125 192.2421875 C218.97719245 194.21898407 218.97719245 194.21898407 222 195 C222 198.96 222 202.92 222 207 C148.74 207 75.48 207 0 207 C0 138.69 0 70.38 0 0 Z " fill="#FEFEFE" transform="translate(0,20)"/>
<path d="M0 0 C3.51996201 -0.20488457 7.03837879 -0.32813842 10.5625 -0.4375 C11.55314453 -0.49615234 12.54378906 -0.55480469 13.56445312 -0.61523438 C20.83479339 -0.78431206 20.83479339 -0.78431206 23.99560547 1.34326172 C25.71484375 3.08984375 25.71484375 3.08984375 27.2359314 4.9535675 C28.93425195 6.92372805 30.67576065 8.53574367 32.66308594 10.20825195 C37.21145075 14.13092954 41.44464469 18.31833288 45.67578125 22.578125 C46.50290619 23.40671021 47.33003113 24.23529541 48.18222046 25.08898926 C49.96532303 26.87587673 51.74727015 28.66391783 53.52816772 30.45300293 C56.35142316 33.28910021 59.17779263 36.12207231 62.00512695 38.95410156 C68.5154254 45.47638212 75.02067265 52.00369297 81.52586365 58.53106689 C87.49376125 64.51921004 93.4627527 70.50625227 99.43582058 76.48923874 C102.68898157 79.74813779 105.93821284 83.01092437 109.18676758 86.27441406 C110.8991021 87.99038327 112.6115784 89.70621103 114.32421875 91.421875 C115.46846817 92.5738739 115.46846817 92.5738739 116.63583374 93.74914551 C120.69929817 97.81300611 124.84701709 101.70907033 129.21321106 105.44683838 C131.9670673 107.84062073 134.51372567 110.32725509 137 113 C137 113.66 137 114.32 137 115 C137.66 115 138.32 115 139 115 C139.00830888 106.48061431 138.98444269 97.96218047 138.9197216 89.4430666 C138.89067321 85.48703119 138.87262757 81.53158807 138.87988281 77.57543945 C138.88647999 73.75595516 138.86397166 69.93764084 138.82144547 66.11839867 C138.81032073 64.66283522 138.80960861 63.20715302 138.81957626 61.75158119 C139.19699237 54.0493525 139.19699237 54.0493525 136.67681885 47.08383179 C134.90821237 45.57472284 134.90821237 45.57472284 132 44 C129.27737086 39.19002185 127.8905582 34.49487682 129 29 C131.31081868 23.57846386 134.52772581 19.38790147 140 17 C145.45937494 16.27005572 150.96905045 16.05245821 156 18.5625 C160.38785538 22.1276325 162.58765535 25.11358745 163.37890625 30.65234375 C163.64812984 36.98344043 162.8057628 40.92564959 159 46 C155.70967742 49 155.70967742 49 153 49 C153 82 153 115 153 149 C144.00118347 142.2508876 144.00118347 142.2508876 140.63867188 138.84985352 C139.88428833 138.09209122 139.12990479 137.33432892 138.35266113 136.55360413 C137.56597046 135.75345383 136.77927979 134.95330353 135.96875 134.12890625 C134.71572083 132.86807472 134.71572083 132.86807472 133.43737793 131.58177185 C130.786736 128.91343896 128.14291651 126.23848314 125.5 123.5625 C122.85622807 120.89096243 120.21094868 118.22096258 117.56262207 115.55393982 C115.9213456 113.90056371 114.28274718 112.24452313 112.64733887 110.58534241 C108.55028251 106.45281666 104.36606848 102.52374079 99.95544434 98.72935486 C96.50748754 95.6800526 93.29614018 92.39825775 90.0625 89.125 C89.33812744 88.39684082 88.61375488 87.66868164 87.86743164 86.91845703 C84.80457576 83.83943049 81.74777689 80.75441677 78.69042969 77.66992188 C76.44155883 75.40284542 74.18959762 73.13887034 71.9375 70.875 C71.26017822 70.18937988 70.58285645 69.50375977 69.88500977 68.79736328 C66.68175061 65.57793203 63.43910294 62.46741388 60 59.5 C55.8229225 55.89582823 51.93835424 52.04834002 48.0625 48.125 C47.33812744 47.39684082 46.61375488 46.66868164 45.86743164 45.91845703 C42.80457576 42.83943049 39.74777689 39.75441677 36.69042969 36.66992188 C34.44155883 34.40284542 32.18959762 32.13887034 29.9375 29.875 C28.92151733 28.84656982 28.92151733 28.84656982 27.88500977 27.79736328 C23.97183776 23.86443508 19.9442659 20.13740783 15.74316406 16.51385498 C13.81200194 14.83673263 11.96662176 13.09568497 10.15625 11.2890625 C9.55039062 10.68449219 8.94453125 10.07992188 8.3203125 9.45703125 C7.71960937 8.85246094 7.11890625 8.24789063 6.5 7.625 C5.86835937 6.99722656 5.23671875 6.36945312 4.5859375 5.72265625 C3.99039063 5.12582031 3.39484375 4.52898438 2.78125 3.9140625 C2.24564453 3.3773291 1.71003906 2.8405957 1.15820312 2.28759766 C0 1 0 1 0 0 Z " fill="#349EA3" transform="translate(39,7)"/>
<path d="M0 0 C7.40288878 6.27318415 7.40288878 6.27318415 10.42163086 9.32397461 C10.99590317 9.90155014 11.57017548 10.47912567 12.16184998 11.07420349 C12.75683792 11.67748978 13.35182587 12.28077606 13.96484375 12.90234375 C14.60184708 13.5431337 15.2388504 14.18392365 15.89515686 14.84413147 C18.58850745 17.5536446 21.27581685 20.26911949 23.96362305 22.98413086 C25.94107086 24.97982391 27.92163972 26.97238322 29.90234375 28.96484375 C30.49530746 29.5661058 31.08827118 30.16736786 31.69920349 30.78684998 C34.68538715 33.79011644 37.72600679 36.66751389 40.93383789 39.43383789 C45.20888382 43.12924708 49.18565927 47.07603467 53.15625 51.09375 C53.9028186 51.84410522 54.64938721 52.59446045 55.4185791 53.36755371 C58.57701112 56.54216504 61.72939279 59.72275916 64.88232422 62.90283203 C67.20069745 65.23940361 69.5221552 67.57287999 71.84375 69.90625 C72.54294556 70.6137439 73.24214111 71.32123779 73.96252441 72.0501709 C77.21221195 75.31577781 80.49623683 78.47773186 83.98632812 81.48632812 C88.32462222 85.22797112 92.34888094 89.24004683 96.375 93.3125 C97.52814697 94.4713269 97.52814697 94.4713269 98.70458984 95.65356445 C101.9585983 98.92376036 105.20656266 102.1999349 108.45507812 105.47558594 C110.84295352 107.88165285 113.23390793 110.28463038 115.625 112.6875 C116.34606934 113.41686768 117.06713867 114.14623535 117.81005859 114.89770508 C121.80037344 118.90700378 125.89361964 122.71499108 130.17822266 126.40753174 C132.6753564 128.59034856 135.0286209 130.89896699 137.375 133.2421875 C138.29667969 134.16257813 139.21835938 135.08296875 140.16796875 136.03125 C140.63251465 136.49789062 141.09706055 136.96453125 141.57568359 137.4453125 C143.02195675 138.89703955 144.47362318 140.3432245 145.92578125 141.7890625 C146.83714844 142.70171875 147.74851563 143.614375 148.6875 144.5546875 C149.51636719 145.38468262 150.34523437 146.21467773 151.19921875 147.06982422 C153 149 153 149 153 150 C149.81346778 150.20521899 146.62864948 150.32822933 143.4375 150.4375 C142.54224609 150.49615234 141.64699219 150.55480469 140.72460938 150.61523438 C134.12878012 150.7843582 134.12878012 150.7843582 131.06689453 148.65673828 C129.28107877 146.84251988 127.65298067 144.93520278 126 143 C124.82154995 141.94655974 123.62243748 140.91588801 122.40625 139.90625 C115.45844212 133.90891295 109.14838366 127.20133514 102.69970703 120.67919922 C95.08162679 112.87616484 95.08162679 112.87616484 87.03125 105.53125 C79.97358707 99.53186387 73.63573362 92.68648983 67.12695312 86.10644531 C65.29510246 84.25633381 63.46011693 82.40937088 61.625 80.5625 C61.0789209 80.00812256 60.5328418 79.45374512 59.97021484 78.88256836 C57.08645588 75.9809762 54.13658678 73.21545207 51.04052734 70.54052734 C47.08998276 67.12259798 43.39399593 63.50649784 39.7265625 59.7890625 C39.07674408 59.13545746 38.42692566 58.48185242 37.75741577 57.80844116 C35.71079445 55.74974083 33.66749711 53.68779161 31.625 51.625 C28.91171113 48.88516603 26.19515243 46.14863538 23.4765625 43.4140625 C22.85576813 42.78496979 22.23497375 42.15587708 21.59536743 41.50772095 C18.59168133 38.36981154 18.59168133 38.36981154 15 36 C14.96847569 44.37178348 14.97465157 52.74234175 15.02846622 61.1139698 C15.05228334 65.00170534 15.06329376 68.88858489 15.04467773 72.77636719 C15.02717587 76.53112066 15.04378338 80.28433922 15.08367729 84.0389061 C15.09294492 85.46853872 15.09008675 86.89830488 15.07469368 88.32788467 C14.71961663 96.13811009 14.71961663 96.13811009 17.54806519 103.10784912 C19.36379301 104.69671158 19.36379301 104.69671158 21.30516052 105.81735229 C23.41555899 107.2899743 24.06148234 108.62849984 25 111 C25.68427662 116.26733861 25.67847777 120.66727581 23.25 125.4375 C22.13625 126.7059375 22.13625 126.7059375 21 128 C20.0409375 129.11375 20.0409375 129.11375 19.0625 130.25 C14.92347852 133.76189701 10.73955495 134.56499032 5.4140625 134.44921875 C-0.01281654 133.43936262 -4.46755501 130.04903844 -7.7265625 125.69140625 C-10.09762277 120.68017764 -9.72478318 115.40595158 -9 110 C-7.21558511 105.91840731 -4.71602347 103.47734898 -1 101 C-0.53969308 99.11998672 -0.53969308 99.11998672 -0.60127258 96.92514038 C-0.58873444 96.07256149 -0.57619629 95.2199826 -0.5632782 94.34156799 C-0.56471329 93.40433395 -0.56614838 92.46709991 -0.56762695 91.50146484 C-0.5574353 90.51606216 -0.54724365 89.53065948 -0.53674316 88.51539612 C-0.50646653 85.24718652 -0.4973248 81.97926927 -0.48828125 78.7109375 C-0.47144545 76.44934097 -0.45329672 74.18775386 -0.43388367 71.92617798 C-0.38625829 65.96511783 -0.35653007 60.00409586 -0.33044434 54.04290771 C-0.30070196 47.96342424 -0.25415003 41.8840725 -0.20898438 35.8046875 C-0.12280865 23.86986039 -0.05552695 11.93500628 0 0 Z " fill="#359FA3" transform="translate(47,77)"/>
<path d="M0 0 C3.52054914 -0.11709643 7.04059112 -0.1875469 10.5625 -0.25 C11.55314453 -0.28351562 12.54378906 -0.31703125 13.56445312 -0.3515625 C20.90842842 -0.44915686 25.16696849 0.56230358 30.7421875 5.5625 C34.44233843 10.25786394 35.15717214 12.98613263 34.625 18.8125 C34.59440854 21.79735291 34.61810952 23.43799402 36.30859375 25.92578125 C38.04167721 27.6473882 38.04167721 27.6473882 39.93664551 29.18566895 C41.91624111 30.92634986 43.56931225 32.71666078 45.26757812 34.72851562 C48.88413598 38.9199765 52.71866016 42.830389 56.65625 46.71875 C57.36221313 47.42092651 58.06817627 48.12310303 58.79553223 48.84655762 C61.02791358 51.06684603 63.26352111 53.28383955 65.5 55.5 C68.45090378 58.42409479 71.39833203 61.35163057 74.34375 64.28125 C75.33936951 65.264422 75.33936951 65.264422 76.35510254 66.26745605 C80.15701303 70.04966877 83.73309695 73.95316447 87.23669434 78.01184082 C90.23324651 81.39050785 93.44403159 84.54669163 96.65625 87.71875 C97.36221313 88.42092651 98.06817627 89.12310303 98.79553223 89.84655762 C101.02791358 92.06684603 103.26352111 94.28383955 105.5 96.5 C108.45090378 99.42409479 111.39833203 102.35163057 114.34375 105.28125 C115.33936951 106.264422 115.33936951 106.264422 116.35510254 107.26745605 C119.51932231 110.41528194 122.57007959 113.6064582 125.48632812 116.98632812 C129.09566462 121.16741558 132.94709634 125.05713736 136.875 128.9375 C137.60315918 129.66187256 138.33131836 130.38624512 139.08154297 131.13256836 C141.38525646 133.42418303 143.69219474 135.71250652 146 138 C149.04464779 141.01785081 152.08582967 144.03913416 155.125 147.0625 C156.15343018 148.07848267 156.15343018 148.07848267 157.20263672 149.11499023 C160.41197683 152.30820894 163.51374487 155.53965891 166.47094727 158.96875 C170.23177474 163.32730776 174.25624754 167.3827975 178.33984375 171.4375 C179.10680069 172.20304199 179.87375763 172.96858398 180.66395569 173.75732422 C183.08610881 176.17393197 185.51173612 178.58701726 187.9375 181 C189.59202893 182.64950686 191.24632802 184.29924429 192.90039062 185.94921875 C196.93094202 189.96881371 200.96434272 193.98553169 205 198 C204.67 198.66 204.34 199.32 204 200 C202.47639433 198.57796804 200.95279128 197.15593327 199.42919922 195.73388672 C198.08321372 194.47765559 196.73718393 193.22147192 195.39111328 191.96533203 C191.96675899 188.76963855 188.54298834 185.5733273 185.12109375 182.375 C178.73770265 176.41009683 172.34177888 170.45974917 165.91577148 164.54077148 C161.73952209 160.69092107 157.58622807 156.81697357 153.4375 152.9375 C149.00040722 148.78866905 144.54797495 144.65899067 140.0625 140.5625 C134.66296809 135.62744396 129.32570768 130.62845121 123.99462891 125.61962891 C119.30680867 121.21774672 114.59457862 116.8438536 109.86352539 112.48852539 C105.7256744 108.67676024 101.60993264 104.84183664 97.5 101 C92.84741484 96.65121839 88.18399887 92.31493032 83.5 88 C75.65861777 80.77494994 67.87326771 73.49009835 60.08398438 66.20898438 C48.55326256 55.42236506 48.55326256 55.42236506 36.94921875 44.71484375 C35.05291107 42.97835455 33.18850563 41.22177333 31.33203125 39.44140625 C30.54183594 38.69761719 29.75164063 37.95382813 28.9375 37.1875 C28.26589844 36.54167969 27.59429688 35.89585938 26.90234375 35.23046875 C25.08547539 33.76183272 25.08547539 33.76183272 22.95703125 34.28125 C22.31121094 34.5184375 21.66539063 34.755625 21 35 C15.05280572 35.5718456 10.80454307 34.45483915 6 31 C1.47657322 26.18618039 -0.1398058 21.80970527 -0.09765625 15.234375 C-0.09443359 14.34492188 -0.09121094 13.45546875 -0.08789062 12.5390625 C-0.07532227 11.15847656 -0.07532227 11.15847656 -0.0625 9.75 C-0.05798828 8.81414063 -0.05347656 7.87828125 -0.04882812 6.9140625 C-0.03706918 4.60930959 -0.02063426 2.30468773 0 0 Z " fill="#369FA4" transform="translate(0,0)"/>
<path d="M0 0 C3.02508145 1.73602105 5.41790069 3.83580137 7 7 C7.37712577 11.99691647 7.09290612 14.99067725 4 19 C-0.02181615 21.68121076 -3.27236391 21.81344335 -8 21 C-11.0717718 19.28922026 -13.40485654 17.19028693 -15 14 C-15.67660495 8.13609041 -15.67660495 8.13609041 -13.953125 5.2421875 C-9.88463507 0.2882027 -6.3581058 -1.08524255 0 0 Z " fill="#FBFDFD" transform="translate(189,30)"/>
<path d="M0 0 C3.42828835 2.04238455 5.88688048 4.10408169 7 8 C6.80743088 13.29565084 5.69046589 16.19770181 2 20 C-1.47263273 21.73631636 -5.21193013 21.60190402 -9 21 C-11.75569447 18.81840855 -13.43588747 17.12822506 -15 14 C-15.37712577 9.00308353 -15.09290612 6.00932275 -12 2 C-7.97297943 -0.68468038 -4.7315637 -0.68187737 0 0 Z " fill="#FBFCFD" transform="translate(59,183)"/>
<path d="M0 0 C3.42828835 2.04238455 5.88688048 4.10408169 7 8 C6.80829763 13.27181513 5.74181444 16.25818556 2 20 C-1.76536934 21.25512311 -5.11576387 21.87779348 -9 21 C-12.35193367 18.68540159 -14.53097166 15.91219244 -15.5078125 11.9296875 C-15.71648941 8.27088566 -15.08541196 6.13381207 -13.125 3.0625 C-9.20388617 -0.74328695 -5.25514239 -0.66371176 0 0 Z " fill="#FBFDFD" transform="translate(22,7)"/>
<path d="M0 0 C4.95 0 9.9 0 15 0 C13.02 0.99 13.02 0.99 11 2 C6.71478548 4.53614737 4.23366836 6.53266328 2 11 C1.34 12.32 0.68 13.64 0 15 C0 10.05 0 5.1 0 0 Z " fill="#F7FAFB" transform="translate(0,0)"/>
<path d="M0 0 C5.29012124 4.40843437 10.18808428 9.07559794 15 14 C14.67 14.66 14.34 15.32 14 16 C11.6545763 13.90899061 9.32593555 11.80014996 7 9.6875 C6.33226562 9.09259766 5.66453125 8.49769531 4.9765625 7.88476562 C4.34492188 7.30791016 3.71328125 6.73105469 3.0625 6.13671875 C2.18271484 5.34334106 2.18271484 5.34334106 1.28515625 4.53393555 C0 3 0 3 0 0 Z " fill="#4CAAAE" transform="translate(190,184)"/>
</svg>
