
<svg width="400" height="400" viewBox="0 0 400 400" fill="none" xmlns="http://www.w3.org/2000/svg">
  <path d="M45.4514 211.17C76.708 283.784 152.04 332.33 234.95 331.974C287.1 331.736 335.264 308.915 369.04 272.372L309.358 212.69C301.177 236.43 282.823 255.667 259.397 264.954C235.971 274.24 208.838 272.595 186.45 260.47C164.062 248.345 148.307 227.052 143.3 202.21C138.292 177.368 144.517 151.537 160.358 132.102C176.199 112.667 199.954 101.496 225.266 102.254C250.577 103.012 273.431 115.61 287.772 136.052L346.536 77.2873C329.699 59.1685 309.007 45.1273 285.949 36.1704C262.891 27.2136 238.107 23.5446 213.493 25.4785C188.88 27.4125 165.14 34.8887 143.992 47.3614C122.845 59.8341 104.882 76.9803 91.5754 97.5523C78.2686 118.124 69.9879 141.568 67.3612 166.03C64.7345 190.492 67.8324 215.216 76.4337 238.283C85.035 261.35 98.9077 282.087 116.99 298.805C135.073 315.523 156.9 327.787 180.764 334.664C204.628 341.542 229.767 342.837 254.125 338.442C278.483 334.047 301.393 324.088 320.923 309.265L357.532 345.874C352.12 351.124 346.421 356.05 340.464 360.632C294.63 393.896 238.157 409.175 181.657 402.764C125.157 396.353 73.3952 368.669 38.081 325.34C2.76681 282.011 -11.7977 226.908 -0.800748 173.169C10.1962 119.43 46.1923 73.2439 96.0434 45.2C145.895 17.1561 205.528 10.3142 259.811 26.24C314.093 42.1657 358.22 78.8767 382.282 128.212C406.344 177.547 408.14 234.604 387.28 285.334L387.242 285.43C384.754 291.382 381.849 297.154 378.546 302.702L378.531 302.73C367.611 321.41 353.353 337.908 336.402 351.474L336.392 351.483L274.462 289.553C276.1 288.335 277.7 287.06 279.258 285.729C290.67 276.324 299.645 264.04 305.252 250.072C310.858 236.105 312.933 220.9 311.268 205.896C309.604 190.892 304.249 176.565 295.694 164.298C287.139 152.032 275.645 142.207 262.244 135.663C248.842 129.12 233.987 126.077 219.102 126.84C204.217 127.602 189.754 132.141 177.07 140.075C164.386 148.008 153.909 159.048 146.685 172.176C139.462 185.304 135.744 200.054 135.876 205.067" fill="url(#rainbow)"/>
  <defs>
    <linearGradient id="rainbow" x1="54.0412" y1="94.4082" x2="269.212" y2="372.844" gradientUnits="userSpaceOnUse">
      <stop stop-color="#FF007A"/>
      <stop offset="0.167" stop-color="#FF9500"/>
      <stop offset="0.333" stop-color="#FFDB00"/>
      <stop offset="0.5" stop-color="#34A853"/>
      <stop offset="0.667" stop-color="#4285F4"/>
      <stop offset="0.833" stop-color="#4B0082"/>
      <stop offset="1" stop-color="#8F00FF"/>
    </linearGradient>
  </defs>
</svg>
