
<svg width="64" height="64" viewBox="0 0 64 64" fill="none" xmlns="http://www.w3.org/2000/svg">
  <path d="M32.0002 62.0008C48.5688 62.0008 62.0007 48.5689 62.0007 32.0004C62.0007 15.4319 48.5688 2 32.0002 2C15.4317 2 1.99976 15.4319 1.99976 32.0004C1.99976 48.5689 15.4317 62.0008 32.0002 62.0008Z" fill="#3B99FC"/>
  <path d="M19.9937 28.0613C25.6673 22.3808 34.8659 22.3808 40.5395 28.0613L41.3484 28.8709C41.7118 29.2348 41.7118 29.8295 41.3484 30.1934L38.6217 32.9238C38.44 33.1058 38.143 33.1058 37.9613 32.9238L36.8186 31.7799C32.8998 27.8556 27.6334 27.8556 23.7146 31.7799L22.4888 33.0068C22.3071 33.1888 22.0101 33.1888 21.8284 33.0068L19.1017 30.2764C18.7383 29.9125 18.7383 29.3178 19.1017 28.9539L19.9937 28.0613ZM47.0266 34.5579L49.4638 36.9978C49.8272 37.3617 49.8272 37.9564 49.4638 38.3203L38.8112 48.9873C38.4478 49.3513 37.8539 49.3513 37.4904 48.9873C37.4904 48.9873 37.4904 48.9873 37.4904 48.9873L30.1254 41.6133C30.0345 41.5223 29.8893 41.5223 29.7984 41.6133L22.4334 48.9873C22.0699 49.3513 21.476 49.3513 21.1126 48.9873C21.1126 48.9873 21.1126 48.9873 21.1126 48.9873L10.4599 38.3203C10.0965 37.9564 10.0965 37.3617 10.4599 36.9978L12.8971 34.5579C13.2605 34.194 13.8544 34.194 14.2179 34.5579L21.5828 41.9319C21.6737 42.0229 21.8189 42.0229 21.9098 41.9319L29.2748 34.5579C29.6382 34.194 30.2321 34.194 30.5955 34.5579C30.5955 34.5579 30.5955 34.5579 30.5955 34.5579L37.9605 41.9319C38.0514 42.0229 38.1966 42.0229 38.2875 41.9319L45.6525 34.5579C46.0159 34.194 46.6098 34.194 46.9733 34.5579Z" fill="white"/>
</svg>
