<?xml version="1.0" encoding="UTF-8"?>
<svg version="1.1" xmlns="http://www.w3.org/2000/svg" width="512" height="512">
<path d="M0 0 C2.56584725 -0.00299682 5.13169406 -0.00640054 7.69754028 -0.01017761 C13.91358387 -0.01843001 20.12961797 -0.02123 26.34566659 -0.02178999 C31.40756468 -0.02226782 36.46945969 -0.02433575 41.53135681 -0.02749062 C55.93533341 -0.03628306 70.3393026 -0.0409123 84.7432819 -0.04016014 C85.51732505 -0.04012019 86.29136819 -0.04008023 87.08886719 -0.04003906 C87.86387382 -0.03999818 88.63888046 -0.0399573 89.43737215 -0.03991518 C101.97888784 -0.03950929 114.52037342 -0.0490681 127.06188041 -0.06317743 C139.99094035 -0.07760602 152.91998568 -0.08444404 165.84905386 -0.08358365 C173.08694832 -0.08325387 180.32481123 -0.08590371 187.56269836 -0.0967617 C194.37871258 -0.10692261 201.19465967 -0.10646577 208.01067734 -0.09924507 C210.49404371 -0.09820937 212.97741438 -0.10050073 215.46077347 -0.10660553 C258.05397808 -0.20442231 298.09453733 3.81168066 330.11523438 34.39526367 C355.08859341 60.27608489 362.59788735 94.65457452 362.56817627 129.77113342 C362.57263295 131.44830504 362.57263295 131.44830504 362.57717967 133.15935892 C362.58580034 136.87870797 362.5873693 140.59802459 362.58886719 144.31738281 C362.59350026 146.99599861 362.59850585 149.67461158 362.60391235 152.35322571 C362.61743577 159.61441742 362.62351179 166.87560357 362.62792301 174.13680577 C362.63069718 178.68412023 362.63493674 183.23143261 362.63942719 187.77874565 C362.65161498 200.40562461 362.66191334 213.03250192 362.66530228 225.65938663 C362.66552184 226.46602039 362.66574141 227.27265415 362.66596763 228.10373136 C362.66618591 228.91214596 362.66640418 229.72056056 362.66662908 230.55347258 C362.66707252 232.19124734 362.66751908 233.82902211 362.66796875 235.46679688 C362.66819018 236.27916596 362.66841161 237.09153505 362.66863975 237.92852139 C362.67257773 251.05673144 362.69000328 264.18488565 362.71332827 277.31307418 C362.73716416 290.83979859 362.74950975 304.36649515 362.75067019 317.89324087 C362.75158044 325.46833335 362.75716585 333.04335316 362.77548981 340.61842537 C362.79105747 347.076222 362.79591515 353.53392353 362.7877517 359.99173541 C362.78390224 363.27402073 362.78619319 366.55607983 362.79880905 369.83834839 C362.94831508 411.21063411 358.13643282 449.60131423 328.31445312 480.34057617 C303.77500227 504.65474136 269.98676975 512.32794733 236.44432068 512.27897644 C235.28789332 512.281242 234.13146596 512.28350755 232.93999535 512.28584176 C229.09141558 512.29213723 225.24287143 512.29135527 221.39428711 512.29052734 C218.62387459 512.29298028 215.85346453 512.29689691 213.08305359 512.30070496 C206.35344885 512.30898175 199.62385288 512.31175847 192.89424347 512.31231733 C187.41792378 512.312794 181.94160695 512.31485622 176.46528816 512.31801796 C160.9056002 512.32681714 145.34591912 512.3314386 129.78622865 512.33068749 C128.53019122 512.33062755 128.53019122 512.33062755 127.2487793 512.33056641 C126.41038681 512.33052553 125.57199432 512.33048464 124.70819599 512.33044253 C111.13487146 512.33003647 97.56157473 512.33959773 83.98825824 512.35370477 C70.01860781 512.368108 56.0489709 512.37497276 42.07931286 512.374111 C34.24962982 512.37378034 26.41997591 512.37646925 18.59029961 512.38728905 C11.92148459 512.39644625 5.25271191 512.39852691 -1.41610671 512.39177962 C-4.8107827 512.38854025 -8.20531231 512.38947458 -11.59999084 512.39713287 C-29.45719763 512.4347847 -47.03012812 512.22196613 -64.44726562 507.83276367 C-65.33091797 507.61475098 -66.21457031 507.39673828 -67.125 507.17211914 C-73.91366363 505.43754326 -80.28607429 503.27055143 -86.57226562 500.14526367 C-88.18488281 499.35829102 -88.18488281 499.35829102 -89.83007812 498.55541992 C-97.1365551 494.81741952 -103.39504393 490.5289886 -109.57226562 485.14526367 C-110.83876953 484.07791992 -110.83876953 484.07791992 -112.13085938 482.98901367 C-129.35909926 468.09458406 -140.46632614 447.96237766 -145.38476562 425.89526367 C-145.57965576 425.02853027 -145.7745459 424.16179687 -145.9753418 423.26879883 C-149.78825444 404.67307769 -149.86741804 385.83564194 -149.84692383 366.93554688 C-149.85128085 364.25397751 -149.85640458 361.57241908 -149.8624115 358.89085388 C-149.87505068 352.41078582 -149.87696578 345.93075939 -149.87461124 339.45068107 C-149.87281554 334.17343206 -149.87460424 328.89619551 -149.87883568 323.61894798 C-149.87943087 322.86287615 -149.88002606 322.10680432 -149.88063928 321.32782122 C-149.88185126 319.79098318 -149.88306539 318.25414515 -149.88428166 316.71730711 C-149.89511589 302.35911302 -149.89301445 288.00094251 -149.88689681 273.64274713 C-149.88173258 260.5661619 -149.89297745 247.48965127 -149.91199503 234.41308079 C-149.93146326 220.92110184 -149.93961371 207.42915802 -149.93587178 193.93716496 C-149.93397312 186.38851315 -149.93631508 178.83992476 -149.95058632 171.29128456 C-149.96261656 164.86404673 -149.96377696 158.43691133 -149.95179615 152.00967178 C-149.94598742 148.74365512 -149.94626964 145.4778593 -149.95679855 142.21184921 C-150.07394082 103.00593718 -146.10493255 64.14784039 -117.43554688 34.97338867 C-116.48335997 34.02841769 -115.52910173 33.08552679 -114.57226562 32.14526367 C-113.44884766 31.0237793 -113.44884766 31.0237793 -112.30273438 29.87963867 C-81.73628432 1.07118482 -39.58926337 -0.00926733 0 0 Z " fill="#3354E0" transform="translate(149.572265625,-0.145263671875)"/>
<path d="M0 0 C6.25765136 -0.32527777 12.51023034 -0.55898639 18.77441406 -0.71411133 C20.89703188 -0.77885663 23.01908475 -0.86709949 25.13964844 -0.98071289 C36.86674199 -1.59253718 45.90462644 -1.71559005 55.1171875 6.26171875 C56.92144817 7.94236035 58.67065321 9.65633962 60.39257812 11.42105103 C62.78790782 13.7739513 65.40138085 15.66419277 68.125 17.625 C74.25029307 22.16102784 80.23384379 26.86322319 86.21337891 31.58837891 C97.16482238 40.24118652 108.18793345 48.79431712 119.27734375 57.26953125 C120.0139624 57.83285156 120.75058105 58.39617187 121.50952148 58.9765625 C122.99053174 60.10753339 124.47309222 61.23647744 125.95727539 62.36328125 C130.4632461 65.79051711 134.87192145 69.30155135 139.140625 73.0234375 C141.77212217 74.40552635 143.17512761 73.78207115 146 73 C148.08854656 71.83381443 148.08854656 71.83381443 150.046875 70.296875 C150.80049316 69.73540771 151.55411133 69.17394043 152.33056641 68.59545898 C153.12897949 67.98645752 153.92739258 67.37745605 154.75 66.75 C155.58837402 66.12101807 156.42674805 65.49203613 157.29052734 64.84399414 C159.86789967 62.90574607 162.435143 60.95476966 165 59 C166.12486816 58.14607666 166.12486816 58.14607666 167.27246094 57.27490234 C171.49562287 54.06786109 175.7046902 50.84289282 179.90722656 47.60888672 C183.43258847 44.89865165 186.96676395 42.19995623 190.5 39.5 C191.91670824 38.41672103 193.33337492 37.33338772 194.75 36.25 C203.25 29.75 203.25 29.75 205.37695312 28.12353516 C206.78714637 27.04513301 208.19730289 25.96668284 209.60742188 24.88818359 C213.24782527 22.10399904 216.88895099 19.32076685 220.53125 16.5390625 C221.27955078 15.96736328 222.02785156 15.39566406 222.79882812 14.80664062 C224.20874252 13.72950106 225.61887827 12.65265114 227.02929688 11.57617188 C228.00479492 10.83077148 228.00479492 10.83077148 229 10.0703125 C229.61678116 9.60791672 230.23356232 9.14552094 230.86903381 8.66911316 C233.01839289 7.02946873 233.01839289 7.02946873 234.97471619 5.19294739 C240.90595862 -0.0312108 245.1669187 -0.97626028 252.94140625 -0.68359375 C253.94968979 -0.67368912 254.95797333 -0.66378448 255.99681091 -0.65357971 C259.18691452 -0.61469394 262.37345374 -0.52692152 265.5625 -0.4375 C267.73758018 -0.40235275 269.91271481 -0.37041976 272.08789062 -0.34179688 C277.39312342 -0.26501866 282.69630704 -0.14819559 288 0 C288 0.66 288 1.32 288 2 C286.33203125 3.3828125 286.33203125 3.3828125 283.8125 5.125 C278.13364462 9.15116285 272.58940735 13.33032936 267.0625 17.5625 C260.00822287 22.95635526 252.92800849 28.31220764 245.8125 33.625 C238.73810104 38.91129578 231.74275648 44.28809544 224.78833008 49.73095703 C219.24476326 54.05903739 213.63664806 58.29405581 208 62.5 C200.89363913 67.80399823 193.8590545 73.18848734 186.87255859 78.64916992 C178.41242033 85.25522246 169.87013219 91.75231953 161.31738281 98.23779297 C159.26550751 99.79810017 157.22090838 101.36720701 155.1796875 102.94140625 C154.11985176 103.75268268 153.05996186 104.56388836 152 105.375 C151.13375 106.04273438 150.2675 106.71046875 149.375 107.3984375 C148.199375 108.19121094 148.199375 108.19121094 147 109 C146.24203125 109.52980469 145.4840625 110.05960937 144.703125 110.60546875 C141.36878753 111.09212783 140.84138933 110.51524708 138.171875 108.58984375 C136.68356306 107.38998535 135.21048577 106.17107768 133.75 104.9375 C132.13096035 103.6227713 130.51115092 102.30899005 128.890625 100.99609375 C128.07271484 100.32433105 127.25480469 99.65256836 126.41210938 98.96044922 C122.83815298 96.05570531 119.17275324 93.27795895 115.5 90.5 C107.38617126 84.31651145 99.33336713 78.05596039 91.28808594 71.78369141 C87.42277659 68.77046583 83.55548127 65.75979468 79.6875 62.75 C78.55453491 61.8684021 78.55453491 61.8684021 77.39868164 60.96899414 C72.0824795 56.83507533 66.74805827 52.72578211 61.40625 48.625 C57.25758611 45.43372009 53.12969753 42.21575864 49 39 C41.68718566 33.30622794 34.35229922 27.64267946 27 22 C25.92305442 21.17203453 24.84623335 20.34390708 23.76953125 19.515625 C23.22949463 19.10022461 22.68945801 18.68482422 22.13305664 18.25683594 C21.05507886 17.42720078 19.9774351 16.59713141 18.90014648 15.76660156 C16.05179594 13.5718926 13.19569078 11.38830978 10.328125 9.21875 C9.72935547 8.76371094 9.13058594 8.30867187 8.51367188 7.83984375 C7.36113116 6.96427018 6.20627299 6.09173655 5.04882812 5.22265625 C1.1124622 2.2249244 1.1124622 2.2249244 0 0 Z " fill="#FCFCFE" transform="translate(112,123)"/>
<path d="M0 0 C3.61642461 1.30048376 6.38670534 2.84488901 9.4140625 5.203125 C10.66437256 6.16822998 10.66437256 6.16822998 11.93994141 7.15283203 C13.26904541 8.19093018 13.26904541 8.19093018 14.625 9.25 C16.519878 10.71217638 18.41573099 12.17309001 20.3125 13.6328125 C21.26640625 14.36790039 22.2203125 15.10298828 23.203125 15.86035156 C27.30659317 18.99956202 31.45920805 22.06921257 35.625 25.125 C36.40133789 25.69524902 37.17767578 26.26549805 37.97753906 26.85302734 C40.31727875 28.57016493 42.6583814 30.28542571 45 32 C55.80090443 39.90861203 66.52646636 47.90052495 77.15917969 56.03417969 C86.02277637 62.80375575 95.00162777 69.41123372 104 76 C114.92394855 83.9987071 125.76587995 92.08746659 136.51513672 100.31982422 C141.81153053 104.36514785 147.16102294 108.30406632 152.61450195 112.13378906 C158.94478535 116.61051504 165.06351673 121.36524954 171.21557617 126.08203125 C178.36587345 131.55078983 185.62293806 136.84225585 193 142 C188.78499078 146.48531042 184.09996505 150.1188863 179.1875 153.8125 C178.39923828 154.40998047 177.61097656 155.00746094 176.79882812 155.62304688 C174.86843905 157.08546284 172.93547516 158.54432616 171 160 C168.28186634 158.70614895 165.85065463 157.2833776 163.41015625 155.5234375 C162.71929932 155.02593994 162.02844238 154.52844238 161.31665039 154.01586914 C160.57278076 153.47438232 159.82891113 152.93289551 159.0625 152.375 C158.27544678 151.80450928 157.48839355 151.23401855 156.67749023 150.64624023 C149.67049335 145.5409364 142.77758314 140.29104148 135.89526367 135.01953125 C127.01748619 128.22638443 118.01898502 121.60385932 109 115 C98.19909557 107.09138797 87.47353364 99.09947505 76.84082031 90.96582031 C67.97722363 84.19624425 58.99837223 77.58876628 50 71 C39.03963441 62.9746277 28.14227074 54.88169258 17.37939453 46.59228516 C16.56196777 45.96499512 15.74454102 45.33770508 14.90234375 44.69140625 C14.10473633 44.06194092 13.30712891 43.43247559 12.48535156 42.78393555 C10.02844952 40.92182973 10.02844952 40.92182973 7.17871094 39.58520508 C4.12791922 37.96295441 2.17473729 36.70094136 0 34 C-1.23385716 28.13869967 -0.94803666 22.51186012 -0.625 16.5625 C-0.57478777 14.95651855 -0.52916929 13.35038651 -0.48828125 11.74414062 C-0.37856976 7.82568522 -0.20637756 3.91450603 0 0 Z " fill="#FCFCFE" transform="translate(140,194)"/>
<path d="M0 0 C4.32506827 2.43156735 8.1522711 4.76077656 11.9375 8 C16.38017433 11.71029886 20.91608739 15.23636638 25.5625 18.6875 C31.43308203 23.05303869 37.23707259 27.49330161 43 32 C49.38422559 36.9894736 55.82136634 41.89794182 62.31469727 46.74438477 C68.00923731 50.99665816 73.64305313 55.32407323 79.26904297 59.66650391 C84.70372281 63.853277 90.15986508 68.01218515 95.61230469 72.17578125 C98.15149667 74.1157447 100.68899248 76.05791556 103.2265625 78 C113.40349026 85.78045814 123.62863905 93.48036502 134 101 C132.69098392 104.92704823 130.19917352 106.43297929 127 108.8125 C126.18982422 109.4322168 126.18982422 109.4322168 125.36328125 110.06445312 C120.71279289 113.58213022 115.87416907 116.80236272 111 120 C101.2676596 112.75055589 91.55641565 105.48052235 82 98 C75.72393232 93.08775141 69.38760517 88.26628267 63 83.5 C55.79607257 78.12327136 48.6639351 72.66520025 41.58032227 67.13110352 C36.55404454 63.20489584 31.50669533 59.30813976 26.4375 55.4375 C25.40846558 54.65173584 25.40846558 54.65173584 24.35864258 53.85009766 C22.23951404 52.23284836 20.11981898 50.61634416 18 49 C14.83259802 46.58429514 11.66608636 44.16742876 8.5 41.75 C7.76322021 41.18853271 7.02644043 40.62706543 6.26733398 40.04858398 C5.25328491 39.27430054 5.25328491 39.27430054 4.21875 38.484375 C3.3205957 37.79939941 3.3205957 37.79939941 2.40429688 37.10058594 C1 36 1 36 0 35 C-0.08851529 32.40640678 -0.11525945 29.83960309 -0.09765625 27.24609375 C-0.09553383 26.08292381 -0.09553383 26.08292381 -0.09336853 24.89625549 C-0.08775345 22.40996506 -0.07519846 19.9237634 -0.0625 17.4375 C-0.05748694 15.75586067 -0.0529237 14.07421994 -0.04882812 12.39257812 C-0.03777913 8.26168434 -0.02050445 4.13085724 0 0 Z " fill="#FDFDFE" transform="translate(141,274)"/>
<path d="M0 0 C0.3244032 4.65835316 0.55847925 9.31000401 0.71411133 13.97705078 C0.77901699 15.558945 0.86739851 17.14007334 0.98071289 18.71923828 C1.86714584 31.40204821 1.86714584 31.40204821 -1.18701172 35.65161133 C-4.67008251 39.13525707 -8.76607466 41.53268898 -13 44 C-14.45190229 45.01986549 -15.894365 46.05352481 -17.3203125 47.109375 C-18.58690367 47.99193872 -19.8551351 48.87215316 -21.125 49.75 C-28.19475046 54.68850629 -35.15146286 59.76610312 -42.08178711 64.89794922 C-48.99714746 70.01369616 -55.97964141 75.02963193 -63 80 C-66.96252346 78.23559279 -70.37342305 75.71146045 -73.875 73.1875 C-74.47441406 72.76146484 -75.07382812 72.33542969 -75.69140625 71.89648438 C-79.60870311 69.08809693 -83.33049208 66.12525369 -87 63 C-83.22518219 59.0310487 -79.21736073 55.74565819 -74.8125 52.5 C-74.11688965 51.98300537 -73.4212793 51.46601074 -72.70458984 50.93334961 C-64.52814646 44.87520769 -56.26386747 38.93793864 -48 33 C-45.01952474 30.85597861 -42.04044489 28.71003448 -39.0625 26.5625 C-38.32926514 26.03398437 -37.59603027 25.50546875 -36.84057617 24.9609375 C-30.39847926 20.30796073 -24.00343211 15.59204336 -17.63110352 10.84399414 C-3.0063698 0 -3.0063698 0 0 0 Z " fill="#FBFBFE" transform="translate(372,194)"/>
<path d="M0 0 C0.14867251 4.8928504 0.25736293 9.78437812 0.32958984 14.67895508 C0.35970545 16.34259957 0.4006085 18.00608602 0.45263672 19.66918945 C0.52569321 22.06501254 0.55950481 24.45873253 0.5859375 26.85546875 C0.61690521 27.5952446 0.64787292 28.33502045 0.67977905 29.09721375 C0.68168582 32.0439175 0.5799513 34.31857845 -1.37567139 36.61636353 C-3.03662109 38.0090332 -3.03662109 38.0090332 -6 40 C-10.15629906 38.23797795 -13.44476198 35.42213477 -16.9375 32.625 C-17.54529297 32.14289063 -18.15308594 31.66078125 -18.77929688 31.1640625 C-20.52265686 29.77990614 -22.26206605 28.39096037 -24 27 C-24.97066406 26.22398437 -25.94132812 25.44796875 -26.94140625 24.6484375 C-27.96041016 23.83246094 -27.96041016 23.83246094 -29 23 C-27.62221726 19.77182806 -26.16992398 18.06733868 -23.3671875 15.9765625 C-22.64273437 15.43 -21.91828125 14.8834375 -21.171875 14.3203125 C-20.41390625 13.76085937 -19.6559375 13.20140625 -18.875 12.625 C-18.14023437 12.07328125 -17.40546875 11.5215625 -16.6484375 10.953125 C-15.17379447 9.84714273 -13.69561074 8.74586511 -12.21386719 7.64941406 C-10.70995741 6.52894489 -9.21606837 5.39492492 -7.73144531 4.24902344 C-7.01827148 3.70020508 -6.30509766 3.15138672 -5.5703125 2.5859375 C-4.93109863 2.08884277 -4.29188477 1.59174805 -3.63330078 1.07958984 C-2 0 -2 0 0 0 Z " fill="#F6F7FD" transform="translate(372,274)"/>
</svg>
