
<svg width="64" height="64" viewBox="0 0 64 64" fill="none" xmlns="http://www.w3.org/2000/svg">
  <circle cx="32" cy="32" r="32" fill="#1A44B7"/>
  <path d="M32 50.4615C42.2641 50.4615 50.4615 42.2641 50.4615 32C50.4615 21.7359 42.2641 13.5385 32 13.5385C21.7359 13.5385 13.5385 21.7359 13.5385 32C13.5385 42.2641 21.7359 50.4615 32 50.4615Z" fill="#1A44B7"/>
  <path fill-rule="evenodd" clip-rule="evenodd" d="M37.6343 25.6113L31.9995 22.1539L26.3647 25.6113V32.5296L31.9995 35.987L37.6343 32.5296V25.6113ZM22.1538 29.2113L32 34.7583L41.8461 29.2113L36.2078 25.7539L32 28.2113L27.7922 25.7539L22.1538 29.2113Z" fill="white"/>
  <path d="M16.0615 32.7427V38.1889L32 47.3881L47.9385 38.1889V32.7427L32 41.9419L16.0615 32.7427Z" fill="white"/>
</svg>
