
<svg width="64" height="64" viewBox="0 0 64 64" fill="none" xmlns="http://www.w3.org/2000/svg">
  <circle cx="32" cy="32" r="32" fill="#213147"/>
  <path d="M32.4167 48.3333C31.8333 48.3333 31.3333 48.0833 31 47.5833L19.6667 27.5833C19.3333 27.0833 19.3333 26.5 19.5833 26L25 15.6667C25.25 15.0833 25.8333 14.75 26.5 14.75H38.1667C38.75 14.75 39.3333 15.0833 39.5833 15.6667L44.3333 25C44.5833 25.5 44.5833 26.0833 44.25 26.5833L33.75 47.5833C33.5 48.0833 33 48.3333 32.4167 48.3333Z" fill="#9DCCED"/>
  <path opacity="0.6" d="M32.4167 48.3333C31.8333 48.3333 31.3333 48.0833 31 47.5833L19.6667 27.5833C19.3333 27.0833 19.3333 26.5 19.5833 26L23.6667 17.9167L28.5 27.75L32.4167 48.3333Z" fill="white"/>
  <path d="M32.4167 48.3333L33.75 47.5833L44.25 26.5833C44.5833 26.0833 44.5833 25.5 44.3333 25L39.5833 15.6667C39.3333 15.0833 38.75 14.75 38.1667 14.75H26.5C25.8333 14.75 25.25 15.0833 25 15.6667L23.8333 17.9167L32.4167 48.3333Z" fill="white"/>
  <path opacity="0.6" d="M32.4167 48.3333L28.5 27.75L23.6667 17.9167L25 15.6667C25.25 15.0833 25.8333 14.75 26.5 14.75H38.1667C38.75 14.75 39.3333 15.0833 39.5833 15.6667L39.9167 16.3333L32.4167 48.3333Z" fill="#2D374B"/>
  <path d="M29.3333 27.4167L26.1667 23.1667L28.0833 20.1667L32.4167 24L29.3333 27.4167Z" fill="#2D374B"/>
</svg>
