
<svg width="64" height="64" viewBox="0 0 64 64" fill="none" xmlns="http://www.w3.org/2000/svg">
  <path d="M32 0C14.327 0 0 14.327 0 32C0 49.673 14.327 64 32 64C49.673 64 64 49.673 64 32C64 14.327 49.673 0 32 0Z" fill="#0033AD"/>
  <path d="M38.192 19.717C38.925 18.448 37.97 16.906 36.526 17.082C35.939 17.148 35.43 17.502 35.145 18.022L32.005 23.807L28.865 18.022C28.579 17.502 28.07 17.148 27.484 17.082C26.04 16.906 25.085 18.448 25.818 19.717L29.599 26.564L23.868 36.904C23.179 38.084 24.025 39.536 25.372 39.536C25.852 39.536 26.296 39.296 26.56 38.889L32 29.218L37.45 38.899C37.714 39.306 38.158 39.546 38.638 39.546C39.985 39.546 40.831 38.094 40.141 36.913L26.999 14.161C26.714 13.641 26.205 13.287 25.618 13.221C24.174 13.045 23.219 14.587 23.952 15.857L25.818 19.068C25.095 17.809 24.159 16.288 22.67 16.288C21.401 16.288 20.363 17.326 20.363 18.595C20.363 19.017 20.483 19.419 20.703 19.77L23.569 25.037C22.984 23.99 21.852 23.313 20.58 23.313C18.932 23.313 17.595 24.65 17.595 26.298C17.595 26.962 17.809 27.577 18.178 28.076L24.438 37.352C25.171 38.475 26.435 39.151 27.81 39.151H27.82C29.195 39.151 30.459 38.475 31.192 37.352L32.005 36.005L32.828 37.363C33.561 38.485 34.825 39.162 36.2 39.162H36.21C37.585 39.162 38.849 38.485 39.582 37.363L45.842 28.086C46.211 27.577 46.425 26.972 46.425 26.309C46.425 24.661 45.088 23.324 43.44 23.324C42.168 23.324 41.036 24.001 40.451 25.048L43.317 19.78C43.537 19.429 43.657 19.027 43.657 18.606C43.657 17.337 42.619 16.299 41.35 16.299C39.861 16.299 38.925 17.809 38.202 19.068L40.068 15.857C40.801 14.587 39.846 13.045 38.402 13.221C37.815 13.287 37.306 13.641 37.021 14.161L23.879 36.913C23.189 38.094 24.035 39.546 25.382 39.546C25.862 39.546 26.306 39.306 26.57 38.899L32.02 29.218L37.47 38.899C37.734 39.306 38.178 39.546 38.658 39.546C40.005 39.546 40.851 38.094 40.161 36.913L34.431 26.574L38.212 19.727L38.192 19.717Z" fill="white"/>
</svg>
