
<svg width="64" height="64" viewBox="0 0 64 64" fill="none" xmlns="http://www.w3.org/2000/svg">
  <path d="M32 62C48.5685 62 62 48.5685 62 32C62 15.4315 48.5685 2 32 2C15.4315 2 2 15.4315 2 32C2 48.5685 15.4315 62 32 62Z" fill="#0033AD"/>
  <path fill-rule="evenodd" clip-rule="evenodd" d="M42.8568 28.5714H38.1995C37.3711 28.5714 36.828 27.8858 36.828 27.0573C36.828 26.6002 37.0138 26.143 37.3282 25.8287L41.0568 22.1001C41.3711 21.7858 41.8282 21.6001 42.2854 21.6001C43.114 21.6001 43.854 22.2858 43.854 23.1144C43.854 23.5715 43.6683 24.0287 43.354 24.343L39.6254 28.0716H42.8568V28.5714ZM32.6283 28.5714H27.9709C27.1425 28.5714 26.5996 27.8858 26.5996 27.0573C26.5996 26.6002 26.7853 26.143 27.0996 25.8287L32.6283 20.3001C32.9425 19.9858 33.3997 19.8001 33.8568 19.8001C34.6853 19.8001 35.4254 20.4858 35.4254 21.3144C35.4254 21.7715 35.2397 22.2287 34.9254 22.543L29.3967 28.0716H32.6283V28.5714ZM22.3997 28.5714H21.1994C20.3708 28.5714 19.8279 27.8858 19.8279 27.0573C20.0137 26.6002 20.1993 26.143 20.5137 25.8287L25.1709 21.1716C25.4852 20.8572 25.9423 20.6715 26.3995 20.6715C27.228 20.6715 27.9678 21.3572 27.9678 22.1858C27.9678 22.6429 27.7823 23.1001 27.468 23.4143L22.8108 28.0716H22.3997V28.5714ZM24.0724 38.4001C24.0724 37.2 24.4443 36.0864 25.1002 35.1786L31.2006 27.0572C31.5724 26.6 32.1866 26.229 32.8003 26.229C33.4142 26.229 34.0282 26.6 34.4 27.0572L40.5005 35.1786C41.1564 36.0864 41.5283 37.2 41.5283 38.4001C41.5283 41.5429 38.0141 44.1286 32.8003 44.1286C27.5865 44.1286 24.0724 41.5429 24.0724 38.4001Z" fill="white"/>
</svg>
