
<svg width="64" height="64" viewBox="0 0 64 64" fill="none" xmlns="http://www.w3.org/2000/svg">
  <path d="M32 64C49.6731 64 64 49.6731 64 32C64 14.3269 49.6731 0 32 0C14.3269 0 0 14.3269 0 32C0 49.6731 14.3269 64 32 64Z" fill="#50AF95"/>
  <path d="M35.9813 37.2763C35.4472 37.2904 33.2767 37.3413 31.3862 37.3413C29.5934 37.3413 28 37.3043 27.3679 37.2763C19.1321 36.9318 13.0075 35.6271 13.0075 34.0601C13.0075 32.4923 19.1321 31.1876 27.3679 30.8288V35.0284C28.0141 35.0704 29.6352 35.1509 31.4157 35.1509C33.4526 35.1509 35.5169 35.0704 35.989 35.0143V30.8288C44.1975 31.1868 50.2948 32.4923 50.2948 34.0601C50.2948 35.6271 44.1983 36.9318 35.9813 37.2763Z" fill="white"/>
  <path d="M35.9813 30.8288V35.0142C35.5092 35.0704 33.4526 35.1509 31.4157 35.1509C29.6352 35.1509 28.0141 35.0704 27.3679 35.0284V30.8288C27.3679 30.8288 27.1808 30.8288 26.9055 30.8288C25.4972 30.8288 18.9745 30.9822 18.9745 26.5217C18.9745 22.0605 25.4972 22.0051 26.9055 22.0051H36.4092C37.8175 22.0051 44.3401 22.0605 44.3401 26.5217C44.3401 30.9822 37.8175 30.8288 36.4092 30.8288C36.2013 30.8288 35.9813 30.8288 35.9813 30.8288Z" fill="white"/>
  <path d="M34.9887 27.4997C34.9887 28.328 33.312 28.9997 31.2367 28.9997C29.1614 28.9997 27.4847 28.328 27.4847 27.4997C27.4847 26.6715 29.1614 25.9998 31.2367 25.9998C33.312 25.9998 34.9887 26.6715 34.9887 27.4997Z" fill="#50AF95"/>
  <path d="M44.3401 26.5217C44.3401 30.9822 37.8175 30.8288 36.4092 30.8288C36.2013 30.8288 35.9813 30.8288 35.9813 30.8288C35.9813 30.8288 44.0377 30.1985 44.0377 26.324C44.0377 22.4487 36.4092 22.0051 36.4092 22.0051H26.9055C25.4972 22.0051 18.9745 22.0605 18.9745 26.5217C18.9745 30.9822 25.4972 30.8288 26.9055 30.8288C27.1808 30.8288 27.3679 30.8288 27.3679 30.8288C27.3679 30.8288 19.2774 30.8288 19.2774 26.5217C19.2774 22.2147 26.9055 22.3113 26.9055 22.3113H36.4092C36.4092 22.3113 44.3401 22.1164 44.3401 26.5217Z" fill="white"/>
</svg>
